<?xml-model href="download.rng"?>
<svg xmlns="http://www.w3.org/2000/svg" width="32" height="32" viewBox="0 0 32 32" fill="none">
	<path d="M18.6667 2.66675L26.6667 10.6667V26.6667C26.6667 27.374 26.3857 28.0523 25.8856 28.5524C25.3855 29.0525 24.7073 29.3334 24 29.3334H8.00001C7.29277 29.3334 6.61449 29.0525 6.11439 28.5524C5.61429 28.0523 5.33334 27.374 5.33334 26.6667V5.33341C5.33334 4.62617 5.61429 3.94789 6.11439 3.4478C6.61449 2.9477 7.29277 2.66675 8.00001 2.66675H18.6667ZM24 26.6667V12.0001H17.3333V5.33341H8.00001V26.6667H24ZM16 25.3334L10.6667 20.0001H14V16.0001H18V20.0001H21.3333L16 25.3334Z" fill="#5E5A72"/>
</svg>