<svg width="172.0518798828125px" height="121.39999999999999px" xmlns="http://www.w3.org/2000/svg"
	viewBox="163.97406005859375 14.300000000000004 172.0518798828125 121.39999999999999"
	preserveAspectRatio="xMidYMid" style="color: var(--pst-color-text-base)">
	<g>
		<g transform="translate(195.59779465198517, 97.46500015258789)">
			<path
				d="M26.05-29.57L26.05-29.57L26.05-29.57Q27.01-31.49 27.01-33.28L27.01-33.28L27.01-33.28Q27.01-35.07 26.82-36.06L26.82-36.06L26.82-36.06Q26.62-37.06 26.18-37.82L26.18-37.82L26.18-37.82Q25.22-39.49 23.30-39.49L23.30-39.49L23.30-39.49Q20.93-39.49 19.01-37.76L19.01-37.76L19.01-37.76Q16.96-35.97 16.96-33.15L16.96-33.15L16.96-33.15Q16.96-31.36 18.21-29.98L18.21-29.98L18.21-29.98Q19.46-28.61 21.38-27.33L21.38-27.33L21.38-27.33Q23.30-26.05 25.47-24.77L25.47-24.77L25.47-24.77Q27.65-23.49 29.57-21.95L29.57-21.95L29.57-21.95Q33.98-18.43 33.98-13.70L33.98-13.70L33.98-13.70Q33.98-10.50 32.29-7.78L32.29-7.78L32.29-7.78Q30.59-5.06 27.78-3.07L27.78-3.07L27.78-3.07Q21.63 1.28 13.50 1.28L13.50 1.28L13.50 1.28Q6.91 1.28 3.52-0.86L3.52-0.86L3.52-0.86Q0.13-3.01 0.13-6.27L0.13-6.27L0.13-6.27Q0.13-12.10 4.67-13.57L4.67-13.57L4.67-13.57Q5.95-14.02 7.90-14.02L7.90-14.02L7.90-14.02Q9.86-14.02 12.10-13.18L12.10-13.18L12.10-13.18Q11.07-10.56 11.07-8.19L11.07-8.19L11.07-8.19Q11.07-3.07 14.72-3.07L14.72-3.07L14.72-3.07Q17.09-3.07 19.04-4.80L19.04-4.80L19.04-4.80Q20.99-6.53 20.99-8.48L20.99-8.48L20.99-8.48Q20.99-10.43 19.74-11.84L19.74-11.84L19.74-11.84Q18.50-13.25 16.64-14.37L16.64-14.37L16.64-14.37Q14.78-15.49 12.64-16.58L12.64-16.58L12.64-16.58Q10.50-17.66 8.64-19.20L8.64-19.20L8.64-19.20Q4.29-22.72 4.29-28.35L4.29-28.35L4.29-28.35Q4.29-32 6.08-34.85L6.08-34.85L6.08-34.85Q7.87-37.70 10.75-39.62L10.75-39.62L10.75-39.62Q16.51-43.52 23.58-43.52L23.58-43.52L23.58-43.52Q30.66-43.52 34.08-41.41L34.08-41.41L34.08-41.41Q37.50-39.30 37.50-35.71L37.50-35.71L37.50-35.71Q37.50-32.58 35.07-30.59L35.07-30.59L35.07-30.59Q32.96-28.93 30.40-28.93L30.40-28.93L30.40-28.93Q27.84-28.93 26.05-29.57ZM63.81-29.57L63.81-29.57L63.81-29.57Q64.77-31.49 64.77-33.28L64.77-33.28L64.77-33.28Q64.77-35.07 64.58-36.06L64.58-36.06L64.58-36.06Q64.38-37.06 63.94-37.82L63.94-37.82L63.94-37.82Q62.98-39.49 61.06-39.49L61.06-39.49L61.06-39.49Q58.69-39.49 56.77-37.76L56.77-37.76L56.77-37.76Q54.72-35.97 54.72-33.15L54.72-33.15L54.72-33.15Q54.72-31.36 55.97-29.98L55.97-29.98L55.97-29.98Q57.22-28.61 59.14-27.33L59.14-27.33L59.14-27.33Q61.06-26.05 63.23-24.77L63.23-24.77L63.23-24.77Q65.41-23.49 67.33-21.95L67.33-21.95L67.33-21.95Q71.74-18.43 71.74-13.70L71.74-13.70L71.74-13.70Q71.74-10.50 70.05-7.78L70.05-7.78L70.05-7.78Q68.35-5.06 65.54-3.07L65.54-3.07L65.54-3.07Q59.39 1.28 51.26 1.28L51.26 1.28L51.26 1.28Q44.67 1.28 41.28-0.86L41.28-0.86L41.28-0.86Q37.89-3.01 37.89-6.27L37.89-6.27L37.89-6.27Q37.89-12.10 42.43-13.57L42.43-13.57L42.43-13.57Q43.71-14.02 45.66-14.02L45.66-14.02L45.66-14.02Q47.62-14.02 49.86-13.18L49.86-13.18L49.86-13.18Q48.83-10.56 48.83-8.19L48.83-8.19L48.83-8.19Q48.83-3.07 52.48-3.07L52.48-3.07L52.48-3.07Q54.85-3.07 56.80-4.80L56.80-4.80L56.80-4.80Q58.75-6.53 58.75-8.48L58.75-8.48L58.75-8.48Q58.75-10.43 57.50-11.84L57.50-11.84L57.50-11.84Q56.26-13.25 54.40-14.37L54.40-14.37L54.40-14.37Q52.54-15.49 50.40-16.58L50.40-16.58L50.40-16.58Q48.26-17.66 46.40-19.20L46.40-19.20L46.40-19.20Q42.05-22.72 42.05-28.35L42.05-28.35L42.05-28.35Q42.05-32 43.84-34.85L43.84-34.85L43.84-34.85Q45.63-37.70 48.51-39.62L48.51-39.62L48.51-39.62Q54.27-43.52 61.34-43.52L61.34-43.52L61.34-43.52Q68.42-43.52 71.84-41.41L71.84-41.41L71.84-41.41Q75.26-39.30 75.26-35.71L75.26-35.71L75.26-35.71Q75.26-32.58 72.83-30.59L72.83-30.59L72.83-30.59Q70.72-28.93 68.16-28.93L68.16-28.93L68.16-28.93Q65.60-28.93 63.81-29.57ZM81.73-31.17L81.73-31.17L81.73-31.17Q79.55-32.83 79.55-36.38L79.55-36.38L79.55-36.38Q79.55-39.94 81.89-41.79L81.89-41.79L81.89-41.79Q84.22-43.65 88.26-43.65L88.26-43.65L88.26-43.65Q90.82-43.65 96.90-42.75L96.90-42.75L101.25-42.11L101.25-42.11Q103.42-41.86 105.70-41.86L105.70-41.86L105.70-41.86Q107.97-41.86 109.50-42.82L109.50-42.82L109.50-42.82Q111.81-40.77 111.81-37.82L111.81-37.82L111.81-37.82Q111.81-34.88 109.18-32.77L109.18-32.77L109.18-32.77Q106.50-30.53 103.04-30.53L103.04-30.53L103.04-30.53Q101.38-30.53 98.69-30.98L98.69-30.98L98.69-30.98Q95.55-21.12 95.55-14.27L95.55-14.27L95.55-14.27Q95.55-7.42 99.01-3.84L99.01-3.84L99.01-3.84Q97.41-0.96 95.04 0.16L95.04 0.16L95.04 0.16Q92.67 1.28 89.12 1.28L89.12 1.28L89.12 1.28Q85.57 1.28 83.36-0.67L83.36-0.67L83.36-0.67Q81.15-2.62 81.15-6.66L81.15-6.66L81.15-6.66Q81.15-11.33 83.71-19.01L83.71-19.01L83.71-19.01Q86.27-26.62 90.11-32.45L90.11-32.45L90.11-32.45Q88.26-32.64 86.34-32.64L86.34-32.64L86.34-32.64Q82.37-32.64 81.73-31.17Z"
				fill="#000000"></path>
		</g>
	</g>
</svg>