<svg xmlns="http://www.w3.org/2000/svg" viewBox="0 0 190 38">
  <path fill="#ffffff" d="M178.8 9.1h2.2v-6h6.6v6h2.4v6h-2.4v8.1c0 .7.1 1.1.2 1.3.1.2.5.2 1.1.2h1.1v5.8h-3.2c-1 0-1.8-.1-2.6-.2-.7-.2-1.4-.4-1.8-.9-.5-.4-.9-1-1.1-1.7-.2-.7-.4-1.6-.4-2.7V15h-2.2V9.1h.1zm-169 20c-.9 1-2.1 1.6-3.7 1.6-1.3 0-2.4-.2-3.2-.6-.8-.4-1.4-1-1.8-1.7-.4-.7-.7-1.5-.9-2.4-.1-1-.2-2-.2-3v-6.5c0-1.2.1-2.3.3-3.3.2-1 .5-1.8 1-2.5s1.1-1.2 1.9-1.5c.8-.3 1.8-.5 3-.5.8.1 1.5.1 2.1.3.6.2 1.1.5 1.5 1V0h6.6v30.5H9.8v-1.4zm-1.4-4c.5 0 .9-.2 1.1-.6.2-.4.3-.9.3-1.6v-6.6c0-.6-.2-1-.4-1.3-.2-.3-.6-.5-1.3-.5-.6 0-1 .2-1.2.6-.2.4-.3 1.1-.3 2v5.6c0 .7.1 1.2.3 1.7.2.5.7.7 1.5.7zm9.5-16h6.6v1.6c.5-.6 1.2-1 2-1.4.8-.4 1.7-.5 2.8-.5 1.1 0 2 .1 2.7.4.7.3 1.2.7 1.5 1.2.3.5.5 1.2.6 2 .1.8.1 1.8.1 2.9v15.2h-6.6v-14c0-.8-.1-1.3-.2-1.6-.2-.3-.5-.5-1.2-.5-.6 0-1 .1-1.3.4-.3.2-.4.9-.4 2v13.6h-6.6V9.1zm25.8 21.6c-1.5 0-2.8-.2-3.9-.6-1.1-.4-1.9-.9-2.5-1.6-.6-.7-1.1-1.5-1.4-2.4-.3-1-.4-2-.4-3.2v-6.2c0-1.2.1-2.3.4-3.3.2-1 .7-1.8 1.3-2.5.6-.7 1.4-1.2 2.5-1.6 1.1-.4 2.4-.5 4.1-.5 1.7 0 3 .2 4.1.5 1.1.4 1.9.9 2.5 1.6.6.7 1 1.5 1.3 2.5.2 1 .4 2 .4 3.2v6.3c0 1.1-.1 2.2-.4 3.2-.3 1-.7 1.8-1.4 2.5-.6.7-1.5 1.2-2.5 1.6-1.3.3-2.6.5-4.1.5zm0-5.6c.4 0 .8-.1 1.1-.4.3-.3.5-.9.5-1.9v-6.1c0-.5 0-.9-.1-1.2-.1-.3-.2-.5-.3-.6-.1-.1-.3-.2-.5-.3-.2 0-.4-.1-.7-.1-.5 0-.9.1-1.2.4-.3.2-.4.9-.4 1.9v6.1c0 1 .1 1.6.4 1.9.4.1.7.3 1.2.3zm8.8-16h2.2v-6h6.6v6h2.4v6h-2.4v8.1c0 .7.1 1.1.2 1.3.1.2.5.2 1.1.2h1.1v5.8h-3.2c-1 0-1.8-.1-2.6-.2-.7-.2-1.4-.4-1.8-.9-.5-.4-.9-1-1.1-1.7-.2-.7-.4-1.6-.4-2.7V15h-2.2V9.1h.1zM65.2.9h6.6V7h-6.6V.9zm0 8.2h6.6v21.4h-6.6V9.1zm16.1 21.6c-1.5 0-2.8-.2-3.9-.6-1.1-.4-1.9-.9-2.5-1.6-.6-.7-1.1-1.5-1.4-2.4-.3-1-.4-2-.4-3.2v-6.2c0-1.2.1-2.3.3-3.3.2-1 .6-1.8 1.3-2.5.6-.7 1.5-1.2 2.5-1.6 1.1-.4 2.4-.6 4.1-.6 1.7 0 3 .2 4 .5 1 .4 1.8.9 2.4 1.6.6.7 1 1.5 1.2 2.4.2.9.4 1.9.4 3.1l-6.8 1.5v-1.7c0-.4-.1-.8-.2-1-.1-.2-.2-.4-.4-.4-.2-.1-.4-.1-.8-.1s-.7.1-1 .4c-.2.3-.4.9-.4 1.9V23c0 1 .1 1.6.4 1.9.3.3.6.4 1.1.4.5 0 .9-.2 1.1-.5.2-.3.3-1 .4-2.2l6.6 1.3c-.1 1-.3 1.9-.6 2.8-.3.9-.7 1.6-1.3 2.2-.6.6-1.4 1.1-2.3 1.5-1 .1-2.3.3-3.8.3zM90.4.9H97V7h-6.6V.9zm0 8.2H97v21.4h-6.6V9.1zm13.2 21.6c-1.1 0-2-.1-2.6-.4-.7-.3-1.2-.7-1.6-1.2-.4-.5-.6-1.2-.8-2-.1-.8-.2-1.7-.2-2.8 0-1.1.1-2.1.3-3 .2-.9.6-1.7 1.3-2.4.7-.7 1.6-1.3 2.9-1.9 1.3-.5 3-1 5.1-1.4 0-.5-.1-.9-.2-1.1-.2-.2-.6-.3-1.3-.3-.6 0-1.1.1-1.3.3-.2.2-.4.5-.5 1l-6.4-2.4c.3-.6.6-1.1 1-1.7.4-.5.9-1 1.6-1.4.7-.4 1.5-.7 2.5-1 1-.2 2.3-.4 3.7-.4 1.6 0 2.9.1 3.8.4 1 .2 1.7.6 2.2 1.1.5.5.9 1.2 1.1 2 .2.8.3 1.8.3 3v15.2H108v-1.7c-.4.6-.9 1-1.4 1.4-.6.5-1.6.7-3 .7zm2.7-5.1c.7 0 1.1-.2 1.3-.5.2-.3.3-1.1.3-2.2v-2.6c-.7.2-1.2.4-1.6.7-.4.2-.7.5-.9.7-.2.3-.3.6-.3.9v1.1c0 .6.1 1.1.2 1.4.1.4.5.5 1 .5zm17.1 5.1c-2.8 0-4.8-.4-6-1.3-1.3-.9-2-2.3-2.2-4.1l6.1-1.6c0 .9.1 1.5.4 1.8.3.3.7.5 1.4.5.6 0 1-.1 1.2-.3.2-.2.3-.5.3-.9 0-.3-.2-.7-.6-1-.4-.3-1-.6-1.6-1-.7-.3-1.4-.7-2.1-1.1-.7-.4-1.5-.9-2.1-1.5-.7-.6-1.2-1.2-1.6-1.9-.4-.7-.6-1.6-.6-2.6 0-.9.1-1.8.3-2.7.2-.8.6-1.6 1.1-2.2.6-.6 1.3-1.1 2.3-1.5 1-.4 2.3-.5 3.8-.5 2.7 0 4.5.5 5.6 1.4 1.1 1 1.7 2.3 1.9 4.1l-5.9 1.6c0-1-.2-1.5-.4-1.7-.2-.2-.6-.3-1.1-.3-.5 0-.8.1-1 .2-.2.2-.3.5-.3.9s.2.7.6 1c.4.3 1 .6 1.6 1l2.1 1.1c.7.4 1.5.8 2.1 1.4.7.6 1.2 1.2 1.6 2 .4.8.7 1.7.7 2.8 0 2.3-.7 4-1.9 5-1.2.9-3.2 1.4-5.7 1.4zm38.4-21.6h6.6v1.2c.9-1.1 2.1-1.6 3.7-1.6 1.3 0 2.4.2 3.2.6.8.4 1.4 1 1.8 1.7.4.7.7 1.5.8 2.4.1.9.2 1.9.2 2.9v6.4c0 1.2-.1 2.3-.3 3.3-.2 1-.5 1.8-1 2.4-.5.7-1.1 1.2-1.9 1.5-.8.4-1.8.5-3 .5-.8 0-1.5-.1-2.1-.2-.6-.2-1.1-.5-1.5-1V38h-6.6V9.1h.1zM170 25c.6 0 1-.2 1.2-.6.2-.4.3-1.1.3-2v-5.6c0-.7-.1-1.2-.3-1.6-.2-.4-.6-.6-1.4-.6-.5 0-.9.2-1.1.5-.2.4-.3.9-.3 1.5v6.2c0 .7.1 1.3.3 1.7.1.3.6.5 1.3.5z"></path>
  <path fill="#bf0d0d" d="M155.8 7.9c2.6 2.7 4 5.8 4 9.5s-1.3 6.9-4 9.6c-2.6 2.6-5.8 4-9.5 4s-6.9-1.3-9.5-3.9c-2.7-2.6-4-5.8-4-9.6 0-3.7 1.3-6.9 4-9.5 2.7-2.7 5.9-4 9.6-4 3.5 0 6.7 1.3 9.4 3.9z"></path>
</svg>