<?xml version="1.0" standalone="no"?>
<!DOCTYPE svg PUBLIC "-//W3C//DTD SVG 20010904//EN"
 "http://www.w3.org/TR/2001/REC-SVG-20010904/DTD/svg10.dtd">
<svg version="1.0" xmlns="http://www.w3.org/2000/svg"
 width="300.000000pt" height="423.000000pt" viewBox="0 0 300.000000 423.000000"
 preserveAspectRatio="xMidYMid meet">
<metadata>
Created by potrace 1.10, written by Peter Selinger 2001-2011
</metadata>
<g transform="translate(0.000000,423.000000) scale(0.100000,-0.100000)"
fill="#000000" stroke="none">
<path d="M1995 4210 c-93 -11 -145 -56 -164 -141 -6 -24 -27 -118 -48 -209
-22 -99 -43 -170 -52 -178 -9 -8 -10 -11 -3 -7 6 3 12 2 12 -3 0 -13 -59 -254
-67 -272 -3 -8 -5 -19 -4 -23 3 -16 -29 -18 -86 -6 -32 7 -79 11 -105 10 -25
-1 -49 3 -53 9 -3 6 -12 7 -18 3 -16 -10 -66 -10 -60 0 2 4 -1 7 -6 7 -6 0
-11 -4 -11 -8 0 -12 -48 -13 -55 -1 -5 7 -11 6 -21 -2 -8 -7 -27 -9 -46 -5
-21 4 -37 1 -48 -9 -9 -8 -44 -18 -78 -21 -34 -4 -62 -11 -62 -15 0 -5 -11 -9
-25 -9 -14 0 -25 -3 -25 -8 0 -8 -59 -39 -152 -78 -38 -16 -68 -34 -68 -42 0
-7 -4 -10 -10 -7 -5 3 -10 3 -10 -2 0 -14 -50 -33 -51 -20 0 7 -5 -1 -11 -16
-6 -18 -15 -26 -24 -23 -8 3 -13 2 -13 -2 4 -24 -4 -50 -22 -71 -17 -20 -22
-22 -29 -11 -5 8 -12 11 -17 7 -4 -5 -2 -12 6 -16 10 -6 6 -22 -18 -69 -18
-36 -27 -63 -21 -67 6 -3 10 1 10 11 0 19 45 96 78 131 12 13 22 29 22 34 0
16 40 69 52 69 6 0 33 16 60 36 28 19 59 37 69 39 10 2 29 11 41 19 12 9 32
16 44 16 11 0 31 9 44 20 24 20 119 54 128 45 3 -3 10 -1 16 4 36 28 256 53
256 28 0 -6 4 -6 13 0 13 11 157 11 174 0 5 -3 73 -8 151 -11 125 -4 153 -9
249 -40 59 -19 124 -41 144 -50 l37 -15 11 42 c6 23 26 119 45 212 78 385 87
431 97 450 6 12 12 41 13 66 3 38 -2 54 -29 93 -18 27 -47 57 -64 68 -17 11
-31 23 -31 28 0 4 -23 8 -51 9 -28 0 -53 2 -57 4 -4 2 -29 0 -57 -3z m70 -44
c11 -2 22 0 25 4 8 13 94 -33 106 -57 5 -12 21 -30 34 -41 24 -19 24 -21 12
-83 -7 -35 -15 -75 -17 -88 -2 -13 -9 -38 -14 -55 -6 -17 -15 -61 -22 -98 -6
-38 -14 -68 -18 -68 -3 0 -7 -15 -8 -33 -2 -28 -12 -82 -56 -303 -12 -60 -12
-60 -31 -42 -11 10 -14 18 -8 18 8 0 10 11 7 31 -3 16 -3 35 1 41 4 5 8 28 9
49 4 46 12 62 28 52 9 -5 9 -3 0 8 -13 16 -6 102 8 93 5 -3 6 1 3 9 -2 7 0 25
5 40 7 18 7 28 0 33 -6 3 -3 11 7 19 12 8 15 18 9 31 -7 17 -9 16 -20 -11 -7
-16 -10 -36 -7 -44 3 -9 1 -12 -6 -7 -8 4 -12 0 -13 -11 -2 -39 -7 -70 -19
-128 -7 -33 -14 -76 -15 -95 -1 -19 -3 -39 -5 -45 -3 -12 -6 -34 -8 -57 -2
-23 -64 -25 -82 -4 -6 8 -21 16 -33 18 -14 2 -23 11 -25 27 -3 19 -6 21 -13
10 -8 -12 -10 -12 -19 1 -7 11 -10 12 -10 2 0 -13 -13 -11 -59 6 -10 4 -13 1
-8 -11 6 -15 4 -16 -14 -6 -12 6 -34 8 -50 5 -16 -3 -29 -1 -29 4 0 6 8 10 18
10 9 0 13 4 7 8 -15 10 -16 26 -4 63 6 19 12 45 14 59 2 14 10 51 18 82 8 32
12 60 10 62 -3 3 -1 11 3 18 5 7 9 18 10 23 1 6 7 30 14 55 6 25 13 53 14 63
1 10 9 23 17 28 11 7 11 9 0 9 -11 0 -11 3 -1 15 7 8 9 15 6 15 -4 0 -4 6 1
13 4 6 8 33 9 58 0 25 5 52 9 59 5 8 10 27 12 42 2 16 12 39 23 51 18 18 22
20 30 7 8 -12 10 -11 10 6 0 44 43 57 135 40z"/>
<path d="M2191 4038 c-1 -21 -6 -38 -12 -38 -5 0 -7 -4 -4 -10 3 -5 11 -10 17
-10 6 0 8 3 5 6 -3 4 -3 14 2 23 4 9 5 27 0 41 -6 22 -7 20 -8 -12z"/>
<path d="M2170 3927 c0 -8 7 -21 16 -28 14 -11 15 -10 12 11 -3 26 -28 41 -28
17z"/>
<path d="M2152 3878 c-5 -7 -6 -22 -2 -32 6 -17 8 -16 18 12 11 32 3 43 -16
20z"/>
<path d="M1853 3823 c-7 -2 -13 -14 -13 -26 0 -16 3 -18 9 -8 7 11 9 11 14 0
3 -8 6 -2 6 14 1 15 0 27 -1 26 -2 0 -9 -3 -15 -6z"/>
<path d="M2140 3793 c0 -12 0 -26 0 -30 0 -4 6 -8 15 -9 12 -2 13 2 4 18 -7
13 -7 23 0 32 8 9 7 13 -4 13 -9 0 -15 -10 -15 -24z"/>
<path d="M1960 3745 c0 -8 -8 -19 -17 -24 -16 -9 -16 -10 5 -11 24 0 28 -10
11 -27 -7 -7 -6 -12 4 -16 20 -8 34 43 15 55 -11 6 -11 10 0 17 11 7 11 9 -2
14 -10 4 -16 1 -16 -8z"/>
<path d="M1956 3643 c-3 -3 -6 -25 -5 -47 1 -40 1 -40 8 -10 4 17 11 36 15 42
7 12 -8 25 -18 15z"/>
<path d="M1207 3310 c10 -18 23 -28 31 -25 8 3 18 5 23 5 6 0 8 4 4 10 -3 5
-12 7 -20 3 -9 -3 -15 1 -15 10 0 13 -19 27 -36 27 -3 0 3 -14 13 -30z"/>
<path d="M1700 3289 c0 -6 7 -8 16 -5 8 3 13 2 10 -3 -3 -5 0 -11 8 -14 15 -6
29 16 19 27 -11 11 -53 6 -53 -5z"/>
<path d="M1820 3290 c0 -6 17 -17 38 -27 20 -9 40 -19 45 -21 4 -2 7 0 7 5 0
4 -20 18 -45 30 -25 12 -45 18 -45 13z"/>
<path d="M1789 3237 c7 -9 11 -24 7 -32 -3 -8 -3 -15 0 -15 7 0 37 30 33 33
-2 1 -15 8 -29 16 -23 13 -24 13 -11 -2z"/>
<path d="M2130 3226 c0 -6 16 -20 35 -30 19 -11 35 -23 35 -27 0 -5 6 -6 13
-3 7 2 33 -9 58 -26 24 -16 49 -30 55 -30 6 0 19 -9 29 -20 10 -11 26 -20 36
-20 10 0 21 -5 24 -10 4 -6 10 -8 14 -6 3 3 33 -20 65 -50 33 -30 63 -54 68
-54 4 0 8 -7 8 -15 0 -8 11 -17 25 -21 16 -4 25 -13 25 -26 0 -12 6 -18 17
-16 11 2 19 -5 21 -17 4 -18 32 -49 52 -57 9 -4 77 -145 85 -179 4 -15 0 -41
-9 -62 -10 -26 -12 -39 -4 -43 6 -4 8 -3 5 3 -4 6 0 16 8 23 17 14 20 10 32
-55 8 -36 8 -114 2 -251 -1 -28 1 -56 5 -62 4 -7 5 -15 3 -19 -3 -5 -8 -44
-11 -89 -4 -45 -8 -91 -11 -103 -2 -12 -5 -50 -6 -84 -1 -34 -4 -66 -7 -70 -2
-5 -5 -34 -7 -65 -1 -32 -5 -73 -9 -92 -3 -19 -8 -48 -11 -65 -4 -16 -8 -48
-10 -70 -11 -111 -17 -162 -22 -180 -2 -11 -7 -42 -9 -70 -7 -69 -9 -76 -23
-109 -6 -16 -18 -70 -25 -120 -8 -50 -24 -122 -36 -161 -12 -38 -22 -79 -23
-90 0 -11 -4 -22 -9 -25 -4 -3 -9 -15 -11 -25 -1 -11 -6 -26 -11 -33 -4 -7
-10 -47 -12 -90 -6 -107 -33 -221 -56 -233 -10 -5 -18 -21 -18 -34 0 -23 -33
-53 -53 -47 -4 1 -6 -2 -5 -7 3 -9 -60 -71 -72 -71 -4 0 -17 -9 -30 -20 -13
-11 -28 -20 -35 -20 -7 0 -26 -7 -43 -16 -18 -8 -37 -12 -43 -8 -8 4 -9 3 -5
-4 4 -7 -7 -13 -31 -17 -21 -4 -54 -12 -73 -18 -19 -6 -42 -12 -50 -12 -34 -2
-80 -17 -80 -26 0 -11 -23 -7 -32 5 -4 6 -13 5 -22 -3 -8 -7 -30 -14 -48 -16
-18 -2 -60 -6 -93 -10 -33 -3 -64 -8 -70 -9 -5 -2 -37 1 -70 6 -97 14 -127 18
-190 23 -33 3 -72 7 -87 11 -15 3 -35 1 -46 -5 -14 -7 -27 -5 -53 11 -19 11
-37 26 -41 32 -6 8 -11 7 -17 -3 -5 -8 -18 -12 -32 -8 -69 17 -133 38 -138 44
-6 8 -40 14 -80 13 -14 0 -33 9 -43 20 -10 10 -25 17 -33 14 -8 -3 -20 -2 -27
2 -7 5 -22 10 -33 11 -11 2 -21 8 -23 13 -2 6 -12 10 -23 10 -25 0 -89 41 -89
58 0 7 -4 11 -8 8 -4 -2 -32 11 -62 30 -30 18 -59 34 -65 34 -27 1 -178 127
-328 276 -103 101 -165 223 -166 324 -1 30 -1 66 -2 80 -2 40 32 127 69 178
13 18 28 49 34 68 5 19 13 32 17 30 5 -3 19 15 31 39 13 25 27 45 33 45 5 0 6
7 3 16 -4 9 11 51 33 98 65 134 89 242 60 271 -7 7 -8 4 -3 -8 4 -12 0 -23
-12 -33 -17 -14 -17 -15 -1 -10 21 7 21 7 0 -34 -9 -18 -17 -43 -18 -54 -6
-47 -26 -103 -45 -124 -12 -12 -19 -22 -16 -22 3 0 -1 -18 -9 -39 -7 -22 -11
-42 -8 -45 4 -3 -1 -6 -10 -6 -10 0 -17 -8 -17 -18 0 -11 -13 -39 -30 -63 -16
-24 -30 -48 -30 -53 0 -5 -10 -23 -23 -40 -32 -42 -55 -91 -63 -132 -3 -19 -9
-34 -13 -34 -4 0 -5 -15 -3 -32 2 -18 5 -68 6 -111 1 -45 7 -82 14 -85 6 -4
19 -28 30 -52 11 -25 29 -54 41 -64 16 -14 18 -22 9 -27 -8 -5 -4 -11 13 -19
13 -6 37 -29 54 -51 16 -22 39 -42 52 -45 12 -3 25 -15 28 -25 4 -11 27 -38
52 -62 26 -23 54 -49 64 -59 9 -9 20 -14 23 -11 3 4 6 1 6 -5 0 -11 102 -82
118 -82 14 0 85 -42 110 -66 15 -13 30 -24 33 -24 3 0 16 -9 29 -20 13 -11 28
-21 34 -21 6 -1 22 -3 35 -4 13 -1 26 -7 30 -13 4 -6 38 -19 76 -29 39 -10 73
-22 76 -27 4 -5 16 -6 28 -3 12 3 24 1 27 -4 3 -5 19 -9 35 -9 16 0 46 -8 67
-19 48 -24 83 -35 81 -24 -3 19 2 23 21 13 11 -6 18 -15 15 -19 -6 -11 29 -21
73 -21 20 0 31 4 27 10 -3 6 -1 10 4 10 6 0 11 -4 11 -10 0 -6 26 -10 58 -10
31 0 112 -9 180 -20 120 -20 192 -22 192 -7 0 4 22 7 49 7 28 0 53 5 56 10 8
13 51 13 76 0 15 -8 21 -7 25 4 5 12 70 31 90 26 4 -1 10 3 14 10 4 6 23 12
43 13 20 2 39 6 43 10 4 4 17 7 29 7 11 0 25 4 30 8 6 5 26 15 45 22 87 34
210 133 225 181 4 13 16 34 26 47 10 13 21 37 24 53 4 17 13 42 21 57 8 15 14
50 14 79 0 28 5 55 10 58 6 3 10 21 10 40 0 19 4 36 10 40 5 3 6 13 3 21 -3 9
-1 19 6 23 6 4 12 24 13 44 1 20 6 37 11 37 6 0 7 3 4 7 -4 3 -3 11 2 17 7 10
14 33 37 136 3 14 7 43 8 65 2 22 13 71 25 108 12 38 21 73 19 80 -2 14 9 99
22 172 5 28 12 77 15 110 3 33 10 94 15 135 5 41 11 94 12 118 1 24 5 45 9 48
4 2 6 12 4 22 -1 9 1 60 7 112 5 52 11 196 12 320 3 179 1 229 -10 245 -8 11
-14 31 -14 46 0 69 -65 193 -147 279 -22 24 -31 41 -27 55 3 12 2 15 -3 8 -5
-8 -38 14 -102 68 -52 44 -114 92 -138 106 -24 13 -43 29 -43 34 0 5 -7 9 -15
9 -8 0 -15 4 -15 10 0 5 -7 6 -17 3 -12 -5 -14 -3 -8 8 8 12 6 12 -8 0 -15
-12 -17 -11 -17 3 0 9 -5 16 -11 16 -5 0 -7 4 -4 10 4 6 -1 7 -11 3 -11 -4
-15 -3 -11 4 5 8 -3 10 -25 6 -29 -4 -31 -3 -19 11 12 14 12 16 -3 10 -9 -3
-23 0 -32 7 -20 16 -54 19 -54 5z"/>
<path d="M1300 3171 c0 -5 7 -14 15 -21 12 -10 19 -10 28 -1 9 9 9 14 -3 21
-19 12 -40 13 -40 1z"/>
<path d="M1723 3159 c39 -20 55 -20 42 0 -3 6 -10 9 -15 6 -5 -3 -11 -1 -15 5
-3 5 -16 10 -28 10 -18 -1 -14 -5 16 -21z"/>
<path d="M807 3053 c-4 -3 -7 -14 -7 -22 0 -9 -11 -25 -25 -35 -14 -10 -25
-23 -25 -29 0 -16 51 35 61 62 10 24 8 36 -4 24z"/>
<path d="M1707 3014 c-9 -9 29 -47 43 -42 6 2 1 13 -13 26 -13 12 -26 19 -30
16z"/>
<path d="M953 2966 c-4 -5 -1 -6 5 -2 6 3 13 2 17 -4 9 -15 35 -12 35 5 0 16
-47 17 -57 1z"/>
<path d="M1583 2973 c4 -6 0 -16 -8 -23 -13 -10 -19 -10 -33 4 -21 18 -32 21
-32 6 0 -5 7 -10 15 -10 7 0 18 -7 23 -15 7 -13 12 -12 31 9 16 17 19 26 10
31 -7 5 -10 4 -6 -2z"/>
<path d="M1352 2898 c5 -15 37 -18 41 -3 1 6 -9 12 -22 13 -16 3 -22 -1 -19
-10z"/>
<path d="M1613 2892 c-7 -13 -7 -21 2 -29 15 -14 25 -7 25 18 0 25 -14 31 -27
11z"/>
<path d="M499 2848 c-25 -51 -30 -87 -18 -111 6 -11 6 -24 1 -34 -7 -12 -5
-21 5 -32 13 -12 14 -41 10 -180 -4 -100 -12 -192 -22 -231 -9 -36 -16 -76
-17 -90 0 -14 -5 -29 -11 -33 -8 -6 -8 -7 2 -5 8 2 26 35 39 74 22 62 25 85
25 234 0 91 -6 211 -13 268 -11 90 -10 105 3 115 14 11 33 67 22 67 -2 0 -14
-19 -26 -42z"/>
<path d="M1687 2864 c-13 -13 -7 -20 19 -22 17 -1 24 2 21 11 -4 14 -30 21
-40 11z"/>
<path d="M1106 2821 c-7 -11 3 -41 14 -41 17 0 21 21 6 35 -8 8 -17 11 -20 6z"/>
<path d="M1528 2819 c-11 -6 -15 -16 -11 -26 4 -9 2 -14 -3 -10 -6 3 -15 -7
-21 -23 -9 -23 -8 -28 3 -23 8 3 14 11 14 19 0 8 3 14 8 14 12 1 43 48 34 54
-4 2 -15 0 -24 -5z"/>
<path d="M1225 2640 c-3 -5 1 -10 9 -10 8 0 22 -7 30 -16 14 -14 16 -14 16 0
0 8 -9 20 -19 26 -24 12 -28 13 -36 0z"/>
<path d="M632 2540 c-10 -28 -10 -29 9 -17 20 13 25 32 10 41 -5 3 -14 -7 -19
-24z"/>
<path d="M906 2428 c-9 -37 -7 -39 14 -18 12 12 18 25 15 30 -10 17 -22 11
-29 -12z"/>
<path d="M436 2050 c-10 -38 -17 -71 -16 -72 0 -2 -6 -21 -16 -43 -9 -22 -18
-51 -20 -65 -8 -47 -13 -54 -29 -40 -8 7 -15 8 -15 3 0 -5 9 -16 19 -25 21
-18 23 -13 76 177 9 33 24 66 33 73 14 11 15 14 3 21 -7 5 -11 13 -7 19 3 6 3
13 -2 16 -4 2 -16 -26 -26 -64z"/>
<path d="M1077 2060 c-3 -12 -1 -18 5 -14 6 4 14 0 19 -7 6 -10 8 -6 7 14 -3
31 -23 36 -31 7z"/>
<path d="M1156 830 c-10 -11 -23 -17 -27 -14 -5 3 -9 0 -9 -5 0 -6 -6 -11 -14
-11 -8 0 -16 -6 -19 -12 -6 -17 33 -88 49 -88 6 0 19 -11 27 -24 11 -17 29
-26 61 -30 25 -4 48 -12 52 -17 4 -7 21 -8 41 -4 26 5 40 2 55 -11 16 -15 21
-16 28 -4 5 7 14 15 22 16 7 2 27 5 43 9 66 12 73 16 85 45 10 25 10 34 -4 55
-15 23 -44 27 -30 4 4 -7 -5 -9 -22 -7 -34 4 -45 28 -12 28 l23 1 -24 19 c-13
11 -36 20 -51 20 -16 0 -41 5 -57 12 -15 6 -62 13 -103 14 -42 1 -76 7 -78 13
-5 15 -14 13 -36 -9z m34 -55 c-7 -8 -8 -15 -4 -15 5 0 15 9 22 20 8 14 23 20
46 20 43 0 95 -18 79 -28 -6 -4 12 -7 40 -7 40 0 52 -4 52 -15 0 -9 -9 -15
-22 -14 -13 0 -23 -3 -23 -7 0 -12 38 -17 48 -7 6 6 19 4 36 -7 21 -14 29 -15
41 -5 10 9 15 9 15 1 0 -6 -4 -11 -10 -11 -5 0 -10 -7 -10 -15 0 -19 -29 -19
-57 0 -20 14 -22 14 -25 -7 -4 -33 -32 -34 -47 -1 -10 21 -14 24 -21 13 -6 -9
-5 -17 3 -22 8 -5 4 -8 -10 -8 -12 0 -25 5 -28 10 -5 8 -11 7 -21 -1 -9 -7
-14 -8 -14 -1 0 6 -11 9 -26 6 -16 -3 -23 -1 -19 6 3 5 2 10 -4 10 -5 0 -11
-5 -13 -11 -3 -8 -8 -7 -18 3 -8 8 -23 17 -32 21 -9 3 -24 19 -32 35 -14 27
-14 31 2 45 35 31 79 24 52 -8z"/>
<path d="M1824 113 c3 -6 0 -14 -7 -17 -7 -3 -1 -2 13 2 14 4 44 7 67 7 59 -1
40 12 -25 17 -37 2 -51 0 -48 -9z"/>
<path d="M1243 3 c20 -2 54 -2 75 0 20 2 3 4 -38 4 -41 0 -58 -2 -37 -4z"/>
</g>
</svg>
