<?xml version="1.0" encoding="UTF-8" standalone="no"?>
<!DOCTYPE svg PUBLIC "-//W3C//DTD SVG 1.1//EN" "http://www.w3.org/Graphics/SVG/1.1/DTD/svg11.dtd">
<svg width="100%" height="100%" viewBox="0 0 100 96" version="1.1" xmlns="http://www.w3.org/2000/svg"
     xmlns:xlink="http://www.w3.org/1999/xlink" xml:space="preserve" xmlns:serif="http://www.serif.com/"
     style="fill-rule:evenodd;clip-rule:evenodd;stroke-linejoin:round;stroke-miterlimit:2;">
    <rect id="Artboard1" x="0" y="0" width="100" height="96.486" style="fill:none;"/>
    <g id="Artboard11" serif:id="Artboard1">
        <path d="M11.379,24.832C11.379,24.261 11.843,23.798 12.414,23.798C18.11,23.798 20.117,19.072 22.06,14.503C23.704,10.634 25.403,6.634 29.483,6.634C33.902,6.634 35.376,12.91 36.934,19.555C38.473,26.113 40.065,32.893 44.138,32.893C48.25,32.893 50.78,28.962 53.457,24.8C56.279,20.412 59.198,15.876 64.31,15.876C69.322,15.876 72.165,20.305 74.915,24.588C77.707,28.935 80.343,33.04 84.999,33.04C85.571,33.04 86.034,33.503 86.034,34.075C86.034,34.647 85.571,35.11 84.999,35.11C79.212,35.11 76.004,30.115 73.175,25.708C70.612,21.716 68.192,17.946 64.31,17.946C60.328,17.946 57.835,21.819 55.197,25.92C52.338,30.366 49.381,34.963 44.138,34.963C38.425,34.963 36.643,27.371 34.92,20.028C33.613,14.46 32.262,8.703 29.482,8.703C26.953,8.703 25.71,11.2 23.963,15.311C21.964,20.014 19.479,25.867 12.413,25.867C11.843,25.867 11.379,25.403 11.379,24.832M44.361,44.584C43.504,44.584 42.557,44.882 42.557,45.739L42.586,50.703L39.522,50.703L43.922,61.878L48.807,50.703L45.691,50.703L45.604,46.255C45.602,45.398 45.218,44.584 44.361,44.584ZM6.034,37.487L6.034,6.674L5,6.674L5,38.522L95,38.522L95,37.487L6.034,37.487M77.414,91.881L77.414,63.849C77.414,63.277 76.951,62.814 76.379,62.814C75.808,62.814 75.345,63.277 75.345,63.849L75.345,91.881C75.345,92.045 75.391,92.194 75.458,92.332L61.955,92.332C62.022,92.194 62.068,92.045 62.068,91.881L62.068,82.718C62.068,82.146 61.605,81.683 61.034,81.683C60.462,81.683 59.999,82.146 59.999,82.718L59.999,91.881C59.999,92.045 60.045,92.194 60.112,92.332L45.059,92.332C45.126,92.194 45.172,92.045 45.172,91.881L45.172,75.943C45.172,75.372 44.709,74.909 44.138,74.909C43.567,74.909 43.104,75.372 43.104,75.943L43.104,91.881C43.104,92.045 43.15,92.194 43.217,92.332L23.852,92.332C23.92,92.194 23.966,92.045 23.966,91.881L23.966,63.849C23.966,63.277 23.502,62.814 22.931,62.814C22.36,62.814 21.897,63.277 21.897,63.849L21.897,91.881C21.897,92.045 21.943,92.194 22.011,92.332L6.034,92.332L6.034,62.881L5,62.881L5,93.366L95,93.366L95,92.332L77.301,92.332C77.368,92.194 77.414,92.045 77.414,91.881"
              style="fill:white;fill-rule:nonzero;stroke:white;stroke-width:5px;"/>
    </g>
</svg>
