<?xml-model href="slack.rng"?>
<svg xmlns="http://www.w3.org/2000/svg" width="24" height="24" viewBox="0 0 24 24" fill="none">
  <path fill-rule="evenodd" clip-rule="evenodd" d="M8.79945 0C7.47276 0.000978593 6.39906 1.07547 6.40004 2.39951C6.39906 3.72355 7.47375 4.79804 8.80043 4.79902H11.2008V2.40049C11.2018 1.07645 10.1271 0.00195719 8.79945 0ZM8.79945 6.4H2.40039C1.0737 6.40098 -0.000977869 7.47547 2.67972e-06 8.79951C-0.00195842 10.1235 1.07272 11.198 2.39941 11.2H8.79945C10.1261 11.199 11.2008 10.1245 11.1998 8.80049C11.2008 7.47547 10.1261 6.40098 8.79945 6.4Z" fill="currentColor"/>
  <path fill-rule="evenodd" clip-rule="evenodd" d="M23.9999 8.79951C24.0009 7.47547 22.9262 6.40098 21.5996 6.4C20.2729 6.40098 19.1982 7.47547 19.1992 8.79951V11.2H21.5996C22.9262 11.199 24.0009 10.1245 23.9999 8.79951ZM17.5999 8.79951V2.39951C17.6009 1.07645 16.5272 0.00195719 15.2005 0C13.8738 0.000978593 12.7991 1.07547 12.8001 2.39951V8.79951C12.7981 10.1235 13.8728 11.198 15.1995 11.2C16.5262 11.199 17.6009 10.1245 17.5999 8.79951Z" fill="currentColor"/>
  <path fill-rule="evenodd" clip-rule="evenodd" d="M15.1995 24C16.5262 23.999 17.6009 22.9245 17.5999 21.6005C17.6009 20.2764 16.5262 19.202 15.1995 19.201H12.7992V21.6005C12.7982 22.9235 13.8729 23.998 15.1995 24ZM15.1995 17.599H21.5996C22.9263 17.598 24.001 16.5235 24 15.1995C24.0019 13.8755 22.9273 12.801 21.6006 12.799H15.2005C13.8738 12.8 12.7992 13.8745 12.8001 15.1985C12.7992 16.5235 13.8729 17.598 15.1995 17.599Z" fill="currentColor"/>
  <path fill-rule="evenodd" clip-rule="evenodd" d="M6.70463e-07 15.1995C-0.000979878 16.5235 1.0737 17.598 2.40038 17.599C3.72707 17.598 4.80175 16.5235 4.80077 15.1995V12.8H2.40038C1.0737 12.801 -0.000979878 13.8755 6.70463e-07 15.1995ZM6.40004 15.1995V21.5995C6.39808 22.9235 7.47276 23.998 8.79945 24C10.1261 23.999 11.2008 22.9245 11.1998 21.6005V15.2015C11.2018 13.8774 10.1271 12.8029 8.80043 12.801C7.47276 12.801 6.39906 13.8755 6.40004 15.1995Z" fill="currentColor"/>
</svg>